<svg width="39.986328" height="39.923828" viewBox="0 0 39.9863 39.9238" fill="none" xmlns="http://www.w3.org/2000/svg" xmlns:xlink="http://www.w3.org/1999/xlink">
	<desc>
			Created with Pixso.
	</desc>
	<defs/>
	<path id="Forma 1" d="M19.9941 37.0234L16.5234 39.9238L14.2344 36.0039L9.99414 37.5156L9.17383 33.0352L4.67969 32.9902L5.41211 28.4902L1.20312 26.8906L3.41406 22.9258L0 19.9609L3.41211 16.9922L1.20117 13.0273L5.41016 11.4277L4.67773 6.93359L9.17188 6.88867L9.99414 2.4082L14.2344 3.91992L16.5215 0L19.9922 2.90039L23.4648 0L25.7539 3.92188L29.9922 2.4082L30.8145 6.89062L35.3086 6.93555L34.5762 11.4297L38.7832 13.0293L36.5742 16.9961L39.9863 19.9609L36.5742 22.9277L38.7832 26.8945L34.5742 28.4941L35.3066 32.9883L30.8125 33.0332L29.9902 37.5137L25.7539 36.0039L23.4648 39.9219L19.9941 37.0234ZM21.1992 35.541L22.9609 37.0117L24.1211 35.0215L24.9141 33.666L26.3828 34.1895L28.5332 34.957L28.9492 32.6836L29.2344 31.1289L30.7969 31.1133L33.0781 31.0918L32.7051 28.8105L32.4512 27.25L33.9102 26.6953L36.0449 25.8828L34.9258 23.873L34.1582 22.498L35.3418 21.4707L37.0762 19.9609L35.3438 18.4609L34.1602 17.4316L34.9258 16.0566L36.0469 14.0449L33.9121 13.2344L32.4531 12.6816L32.709 11.1211L33.0801 8.83984L30.7988 8.81641L29.2383 8.80078L28.9531 7.24609L28.5371 4.97461L26.3867 5.74023L24.918 6.26367L24.125 4.90625L22.9629 2.91797L21.2012 4.38867L19.9961 5.39258L18.791 4.38867L17.0293 2.91797L15.8691 4.90625L15.0762 6.26367L13.6074 5.74023L11.457 4.97266L11.0391 7.24609L10.7559 8.80078L9.19531 8.81641L6.91406 8.83789L7.28516 11.1191L7.53906 12.6777L6.08008 13.2324L3.94531 14.043L5.06641 16.0547L5.83203 17.4297L4.65039 18.459L2.91602 19.9668L4.64844 21.4746L5.83203 22.5039L5.06641 23.8789L3.94531 25.8887L6.07812 26.6973L7.53711 27.2539L7.2832 28.8125L6.91211 31.0957L9.19336 31.1191L10.7539 31.1348L11.0371 32.6895L11.4551 34.9609L13.6074 34.1953L15.0762 33.6719L15.8672 35.0293L17.0293 37.0195L18.791 35.5469L19.9961 34.543L21.1992 35.541ZM21.3184 23.0195C21.3184 20.0938 22.8828 18.4648 24.7773 18.4648C26.7832 18.4648 28.0762 20.0273 28.0762 22.7949C28.0762 25.8535 26.4922 27.3711 24.6621 27.3711C22.8828 27.3711 21.3379 25.9219 21.3184 23.0195ZM22.8398 22.9316C22.8164 24.7832 23.5215 26.1895 24.7109 26.1895C25.9883 26.1895 26.5605 24.8047 26.5605 22.8906C26.5605 21.125 26.0547 19.6523 24.7109 19.6523C23.5 19.6484 22.8398 21.1035 22.8398 22.9316L22.8398 22.9316ZM15.1934 27.332L23.6094 12.6133L24.8418 12.6133L16.4277 27.332L15.1934 27.332ZM11.9785 16.9902C11.9785 14.0898 13.543 12.457 15.4375 12.457C17.4375 12.457 18.7637 14.0215 18.7637 16.7891C18.7637 19.8477 17.1777 21.3652 15.3262 21.3652C13.5449 21.3652 12 19.9141 11.9785 16.9902L11.9785 16.9902ZM13.5215 16.9238C13.4766 18.7754 14.1621 20.1816 15.3711 20.1836C16.6484 20.1836 17.2207 18.7988 17.2207 16.8828C17.2207 15.1172 16.7148 13.6445 15.3711 13.6445C14.1621 13.6426 13.5215 15.0918 13.5215 16.9258L13.5215 16.9238Z" fill="#F16D7F" fill-opacity="1.000000" fill-rule="nonzero"/>
</svg>
