<svg width="31.451172" height="32.000000" viewBox="0 0 31.4512 32" fill="none" xmlns="http://www.w3.org/2000/svg" xmlns:xlink="http://www.w3.org/1999/xlink">
	<desc>
			Created with Pixso.
	</desc>
	<defs>
		<clipPath id="clip128_242">
			<rect id="pinterest-p-brands 1" width="11.919281" height="16.000000" transform="translate(9.933594 8.000000)" fill="white" fill-opacity="0"/>
		</clipPath>
	</defs>
	<path id="Rectangle 14" d="M0 0L31.4512 0L31.4512 32L0 32L0 0Z" fill="#FFFFFF" fill-opacity="1.000000" fill-rule="evenodd"/>
	<rect id="pinterest-p-brands 1" width="11.919281" height="16.000000" transform="translate(9.933594 8.000000)" fill="#FFFFFF" fill-opacity="0"/>
	<g clip-path="url(#clip128_242)">
		<path id="Vector" d="M16.2656 8.20312C13.0801 8.20312 9.93359 10.3398 9.93359 13.8008C9.93359 16 11.1621 17.25 11.9082 17.25C12.2148 17.25 12.3926 16.3867 12.3926 16.1445C12.3926 15.8535 11.6562 15.2344 11.6562 14.0254C11.6562 11.5117 13.5566 9.73047 16.0137 9.73047C18.1289 9.73047 19.6934 10.9414 19.6934 13.1621C19.6934 14.8223 19.0312 17.9336 16.8887 17.9336C16.1172 17.9336 15.4551 17.3711 15.4551 16.5664C15.4551 15.3848 16.2754 14.2402 16.2754 13.0215C16.2754 10.9531 13.3613 11.3281 13.3613 13.8281C13.3613 14.3535 13.4258 14.9336 13.6582 15.4121C13.2305 17.2695 12.3555 20.0352 12.3555 21.9473C12.3555 22.5371 12.4395 23.1191 12.4941 23.709C12.5996 23.8281 12.5469 23.8164 12.709 23.7559C14.2734 21.5996 14.2168 21.1777 14.9238 18.3555C15.3066 19.0879 16.293 19.4805 17.0762 19.4805C20.373 19.4805 21.8535 16.2461 21.8535 13.332C21.8535 10.2285 19.1895 8.20312 16.2656 8.20312Z" fill="#000000" fill-opacity="1.000000" fill-rule="nonzero"/>
	</g>
</svg>
