<svg width="31.451172" height="32.000000" viewBox="0 0 31.4512 32" fill="none" xmlns="http://www.w3.org/2000/svg" xmlns:xlink="http://www.w3.org/1999/xlink">
	<desc>
			Created with Pixso.
	</desc>
	<defs>
		<clipPath id="clip128_238">
			<rect id="twitter-brands 1" width="15.892374" height="16.000000" transform="translate(7.947266 8.000000)" fill="white" fill-opacity="0"/>
		</clipPath>
	</defs>
	<path id="Rectangle 14" d="M0 0L31.4512 0L31.4512 32L0 32L0 0Z" fill="#FFFFFF" fill-opacity="1.000000" fill-rule="evenodd"/>
	<rect id="twitter-brands 1" width="15.892374" height="16.000000" transform="translate(7.947266 8.000000)" fill="#FFFFFF" fill-opacity="0"/>
	<g clip-path="url(#clip128_238)">
		<path id="Vector" d="M22.2051 12.7402C22.2168 12.8828 22.2168 13.0254 22.2168 13.166C22.2168 17.502 18.9395 22.4961 12.9492 22.4961C11.1035 22.4961 9.38867 21.959 7.94727 21.0254C8.20898 21.0547 8.46094 21.0645 8.73438 21.0645C10.2559 21.0645 11.6582 20.5469 12.7773 19.6641C11.3457 19.6348 10.1465 18.6895 9.73242 17.3906C9.93359 17.4199 10.1348 17.4414 10.3477 17.4414C10.6406 17.4414 10.9316 17.4004 11.2051 17.3301C9.71289 17.0254 8.5918 15.7051 8.5918 14.1113L8.5918 14.0703C9.02539 14.3145 9.53125 14.4668 10.0645 14.4863C9.1875 13.8984 8.61328 12.8926 8.61328 11.7559C8.61328 11.1465 8.77344 10.5879 9.05664 10.1016C10.6602 12.0898 13.0703 13.3906 15.7715 13.5332C15.7227 13.2891 15.6914 13.0352 15.6914 12.7812C15.6914 10.9746 17.1445 9.50195 18.9492 9.50195C19.8867 9.50195 20.7344 9.89844 21.3281 10.5371C22.0645 10.3945 22.7715 10.1211 23.3965 9.74609C23.1543 10.5078 22.6387 11.1465 21.9648 11.5527C22.6191 11.4824 23.2539 11.2988 23.8398 11.0449C23.3965 11.6953 22.8418 12.2734 22.2051 12.7402Z" fill="#000000" fill-opacity="1.000000" fill-rule="nonzero"/>
	</g>
</svg>
