<svg width="29.000000" height="29.000000" viewBox="0 0 29 29" fill="none" xmlns="http://www.w3.org/2000/svg" xmlns:xlink="http://www.w3.org/1999/xlink">
	<desc>
			Created with Pixso.
	</desc>
	<defs/>
	<path d="M14.5 19.9375C19 19.9375 22.6562 15.4648 22.6562 9.96875C22.6562 4.47266 19 0 14.5 0C13.3633 0.0234375 12.2461 0.304688 11.2344 0.824219C10.2246 1.34375 9.3457 2.08984 8.66602 3C7.12695 4.99609 6.30859 7.45312 6.34375 9.97266C6.34375 15.4648 10 19.9375 14.5 19.9375ZM14.5 1.8125C18 1.8125 20.8438 5.47266 20.8438 9.96875C20.8438 14.4648 17.998 18.125 14.5 18.125C11.002 18.125 8.15625 14.4648 8.1543 9.96875C8.1543 5.47266 11 1.8125 14.5 1.8125ZM20.8438 18.125C20.6035 18.125 20.373 18.2188 20.2031 18.3906C20.0332 18.5586 19.9375 18.793 19.9375 19.0312C19.9375 19.2734 20.0332 19.5039 20.2031 19.6719C20.373 19.8438 20.6035 19.9375 20.8438 19.9375C22.5254 19.9414 24.1387 20.6094 25.3281 21.7969C26.5176 22.9883 27.1855 24.6016 27.1875 26.2812C27.1875 26.5234 27.0918 26.7539 26.9219 26.9219C26.752 27.0938 26.5215 27.1875 26.2812 27.1875L2.7207 27.1875C2.48047 27.1875 2.25 27.0938 2.08008 26.9219C1.91016 26.7539 1.81445 26.5234 1.81445 26.2812C1.81641 24.6016 2.48438 22.9883 3.67383 21.7969C4.86328 20.6094 6.47656 19.9414 8.1582 19.9375C8.39844 19.9375 8.62891 19.8438 8.79883 19.6719C8.96875 19.5039 9.06445 19.2734 9.06445 19.0312C9.06445 18.793 8.96875 18.5625 8.79883 18.3906C8.62891 18.2227 8.39844 18.125 8.1582 18.125C5.99609 18.1289 3.92188 18.9883 2.39258 20.5156C0.863281 22.0469 0.00195312 24.1172 0 26.2812C0 27 0.287109 27.6914 0.796875 28.2031C1.30664 28.7109 1.99805 29 2.71875 29L26.2812 29C27.002 29 27.6934 28.7109 28.2031 28.2031C28.7129 27.6914 29 27 29 26.2812C28.998 24.1172 28.1367 22.0469 26.6074 20.5156C25.0801 18.9883 23.0059 18.1289 20.8438 18.125Z" fill="#E8E8E8" fill-opacity="1.000000" fill-rule="nonzero"/>
</svg>
