<svg width="31.994141" height="29.000000" viewBox="0 0 31.9941 29" fill="none" xmlns="http://www.w3.org/2000/svg" xmlns:xlink="http://www.w3.org/1999/xlink">
	<desc>
			Created with Pixso.
	</desc>
	<defs/>
	<path d="M26.2012 29C25.5527 28.9727 24.9414 28.6953 24.498 28.2227C24.0527 27.75 23.8105 27.125 23.8242 26.4766C23.8379 25.8281 24.1035 25.2109 24.5664 24.7578C25.0293 24.3008 25.6523 24.0469 26.3008 24.0469C26.9492 24.0469 27.5723 24.3008 28.0352 24.7578C28.498 25.2109 28.7637 25.8281 28.7773 26.4766C28.791 27.125 28.5488 27.75 28.1055 28.2227C27.6602 28.6953 27.0488 28.9727 26.4004 29L26.2012 29ZM6.75391 26.3203C6.75391 25.7891 6.91016 25.2734 7.20508 24.832C7.5 24.3906 7.91797 24.0469 8.4082 23.8438C8.89648 23.6406 9.43555 23.5898 9.95508 23.6914C10.4766 23.793 10.9531 24.0508 11.3281 24.4258C11.7031 24.8008 11.959 25.2773 12.0625 25.7969C12.1641 26.3164 12.1113 26.8555 11.9082 27.3438C11.707 27.8359 11.3633 28.2539 10.9219 28.5469C10.4805 28.8438 9.96289 29 9.43359 29C9.08008 29 8.73242 28.9297 8.40625 28.7969C8.08203 28.6602 7.78516 28.4648 7.53711 28.2148C7.28711 27.9688 7.08984 27.6719 6.95508 27.3477C6.82031 27.0195 6.75 26.6719 6.75 26.3203L6.75391 26.3203ZM10.5527 20.6875C10.293 20.6875 10.041 20.6016 9.83398 20.4453C9.62695 20.2891 9.47852 20.0703 9.4082 19.8203L4.57422 2.36328L1.18164 2.36328C0.869141 2.36328 0.568359 2.23828 0.345703 2.01953C0.125 1.79688 0 1.49609 0 1.18359C0 0.867188 0.125 0.566406 0.345703 0.347656C0.568359 0.125 0.869141 0 1.18164 0L5.46289 0C5.72266 0 5.97461 0.0820312 6.18164 0.242188C6.38867 0.398438 6.53711 0.617188 6.60742 0.867188L11.4395 18.3242L24.6172 18.3242L29 8.27344L14.4004 8.27344C14.2422 8.28125 14.0859 8.25391 13.9375 8.19531C13.791 8.13672 13.6562 8.05078 13.543 7.94141C13.4297 7.83203 13.3379 7.69922 13.2773 7.55469C13.2148 7.40625 13.1836 7.25 13.1836 7.09375C13.1836 6.93359 13.2148 6.77734 13.2773 6.63281C13.3379 6.48438 13.4297 6.35547 13.543 6.24219C13.6562 6.13281 13.791 6.04688 13.9375 5.98828C14.0859 5.93359 14.2422 5.90625 14.4004 5.91016L30.8145 5.91016C31.0098 5.91016 31.2031 5.95703 31.375 6.05078C31.5469 6.14453 31.6934 6.27734 31.8008 6.44141C31.9082 6.60547 31.9727 6.79688 31.9902 6.99219C32.0078 7.1875 31.9766 7.38281 31.9004 7.56641L26.4941 19.9766C26.4023 20.1875 26.25 20.3672 26.0586 20.4922C25.8652 20.6172 25.6406 20.6875 25.4102 20.6875L10.5527 20.6875Z" fill="#E8E8E8" fill-opacity="1.000000" fill-rule="nonzero"/>
</svg>
