<svg width="44.988281" height="31.933594" viewBox="0 0 44.9883 31.9336" fill="none" xmlns="http://www.w3.org/2000/svg" xmlns:xlink="http://www.w3.org/1999/xlink">
	<desc>
			Created with Pixso.
	</desc>
	<defs/>
	<path d="M30.2578 27.2422L14.7812 27.2422C14.5742 28.5508 13.9062 29.7422 12.9004 30.6016C11.8926 31.4629 10.6113 31.9336 9.28711 31.9336C7.96289 31.9336 6.68164 31.4629 5.67578 30.6016C4.66797 29.7422 4.00195 28.5508 3.79492 27.2422L1.85742 27.2422C1.36133 27.2402 0.888672 27.041 0.541016 26.6895C0.193359 26.3379 -0.00195312 25.8613 0 25.3672L0 1.87695C-0.00195312 1.38281 0.191406 0.90625 0.541016 0.554688C0.888672 0.203125 1.36133 0.00390625 1.85742 0L27.4082 0C27.9023 0.00390625 28.377 0.203125 28.7246 0.554688C29.0723 0.90625 29.2656 1.38281 29.2637 1.87695L29.2637 3.78125L36.3848 3.78125C36.4648 3.78125 36.5449 3.79297 36.623 3.8125C38.9238 4.01367 40.0801 5.21289 41.3008 7.27539L44.8594 13.3691C44.9434 13.5137 44.9883 13.6777 44.9883 13.8457L44.9883 26.3047C44.9902 26.5508 44.8926 26.7891 44.7188 26.9648C44.5449 27.1406 44.3066 27.2402 44.0605 27.2422L41.2461 27.2422C41.0391 28.5508 40.3711 29.7402 39.3652 30.6016C38.3574 31.4609 37.0762 31.9336 35.752 31.9336C34.4277 31.9336 33.1465 31.4609 32.1406 30.6016C31.1328 29.7402 30.4668 28.5508 30.2598 27.2422L30.2578 27.2422ZM32.0352 26.3047C32.043 27.0371 32.2676 27.752 32.6816 28.3574C33.0938 28.9629 33.6777 29.4316 34.3574 29.707C35.0352 29.9824 35.7812 30.0508 36.5 29.9023C37.2168 29.7539 37.875 29.3984 38.3906 28.877C38.9062 28.3555 39.2578 27.6934 39.3965 26.9746C39.5371 26.2559 39.4609 25.5098 39.1797 24.834C38.8965 24.1562 38.4219 23.5801 37.8105 23.1719C37.2012 22.7656 36.4844 22.5488 35.752 22.5488C34.7617 22.5547 33.8145 22.9551 33.1172 23.6582C32.4219 24.3613 32.0312 25.3145 32.0352 26.3047ZM5.57227 26.3047C5.58008 27.0371 5.80469 27.752 6.2168 28.3574C6.63086 28.9629 7.21289 29.4316 7.89258 29.707C8.57227 29.9824 9.31836 30.0508 10.0352 29.9023C10.7539 29.7539 11.4121 29.3984 11.9277 28.877C12.4434 28.3555 12.793 27.6934 12.9336 26.9746C13.0742 26.2559 12.998 25.5098 12.7148 24.834C12.4336 24.1562 11.957 23.5801 11.3477 23.1719C10.7383 22.7656 10.0215 22.5488 9.28711 22.5488C8.29688 22.5547 7.34961 22.9531 6.65234 23.6582C5.95703 24.3613 5.56641 25.3125 5.57031 26.3047L5.57227 26.3047ZM41.2441 25.3652L43.1309 25.3652L43.1309 19.748L40.3945 19.748C40.2715 19.748 40.1504 19.7227 40.0371 19.6758C39.9238 19.627 39.8223 19.5586 39.7344 19.4707C39.6484 19.3848 39.5801 19.2812 39.5352 19.168C39.4883 19.0547 39.4648 18.9316 39.4648 18.8105L39.4648 16.9629C39.4648 16.2422 39.7402 15.5488 40.2344 15.0254L33.8555 15.0254C33.7793 15.0254 33.7012 15.0156 33.627 14.9961C32.9219 14.9336 32.2676 14.6074 31.791 14.0859C31.3145 13.5625 31.0508 12.8789 31.0527 12.1719L31.0527 7.47266C31.0527 7.34961 31.0762 7.22852 31.123 7.11328C31.168 7 31.2363 6.89648 31.3223 6.81055C31.4102 6.72266 31.5117 6.6543 31.625 6.60547C31.7383 6.55859 31.8594 6.5332 31.9824 6.5332L38.4648 6.5332C38.1211 6.21484 37.7129 5.9707 37.2695 5.82031C36.8262 5.66797 36.3535 5.61133 35.8867 5.6543L29.2637 5.6543L29.2637 25.3613L30.2578 25.3613C30.4648 24.0547 31.1328 22.8633 32.1387 22.002C33.1465 21.1426 34.4277 20.6699 35.752 20.6699C37.0762 20.6699 38.3574 21.1426 39.3633 22.002C40.3711 22.8633 41.0371 24.0547 41.2441 25.3613L41.2441 25.3652ZM14.7793 25.3652L27.4062 25.3652L27.4062 1.875L1.85742 1.875L1.85742 25.3652L3.79492 25.3652C4.00195 24.0586 4.66797 22.8672 5.67578 22.0059C6.68164 21.1465 7.96289 20.6738 9.28711 20.6738C10.6113 20.6738 11.8926 21.1465 12.9004 22.0059C13.9062 22.8672 14.5742 24.0586 14.7812 25.3652L14.7793 25.3652ZM41.3223 16.9648L41.3223 17.875L43.1309 17.875L43.1309 16.0273L42.252 16.0273C42.0039 16.0293 41.7676 16.1289 41.5938 16.3047C41.4199 16.4785 41.3223 16.7168 41.3223 16.9629L41.3223 16.9648ZM32.9082 12.1738C32.9082 12.4258 33.0078 12.6699 33.1836 12.8477C33.3613 13.0273 33.6035 13.1309 33.8555 13.1328C33.9199 13.1309 33.9844 13.1387 34.0469 13.1523L42.5703 13.1523L39.8047 8.41602L32.9043 8.41602L32.9082 12.1738ZM33.002 26.3066C33 25.5742 33.2871 24.8691 33.8027 24.3496C34.3184 23.8281 35.0176 23.5332 35.752 23.5293C36 23.5293 36.2383 23.627 36.4141 23.8047C36.5898 23.9805 36.6895 24.2188 36.6895 24.4668C36.6895 24.7148 36.5898 24.9551 36.4141 25.1309C36.2383 25.3066 36 25.4043 35.752 25.4043C35.5723 25.4023 35.3984 25.4551 35.248 25.5527C35.0996 25.6504 34.9824 25.791 34.9141 25.9551C34.8438 26.1191 34.8262 26.3008 34.8594 26.4766C34.8926 26.6504 34.9785 26.8125 35.1035 26.9375C35.2285 27.0645 35.3906 27.1523 35.5645 27.1875C35.7402 27.2227 35.9199 27.2051 36.0859 27.1367C36.25 27.0684 36.3906 26.9531 36.4902 26.8047C36.5898 26.6582 36.6426 26.4824 36.6426 26.3047C36.6426 26.0586 36.7402 25.8223 36.9141 25.6484C37.0898 25.4746 37.3262 25.377 37.5723 25.377C37.8184 25.377 38.0547 25.4746 38.2285 25.6484C38.4023 25.8223 38.5 26.0586 38.5 26.3047C38.5 27.0352 38.2109 27.7344 37.6953 28.25C37.1797 28.7656 36.4785 29.0547 35.75 29.0547C35.0215 29.0547 34.3203 28.7656 33.8047 28.25C33.2891 27.7344 33 27.0352 33 26.3047L33.002 26.3066ZM6.53711 26.3066C6.53516 25.5742 6.82227 24.8691 7.33789 24.3496C7.85352 23.8281 8.55469 23.5332 9.28711 23.5293C9.53516 23.5293 9.77344 23.627 9.95117 23.8047C10.127 23.9805 10.2246 24.2188 10.2246 24.4668C10.2246 24.7148 10.127 24.9551 9.95117 25.1309C9.77344 25.3066 9.53516 25.4043 9.28711 25.4043C9.10938 25.4023 8.93359 25.4551 8.78516 25.5527C8.63672 25.6504 8.51953 25.791 8.44922 25.9551C8.38086 26.1191 8.36133 26.3008 8.39453 26.4766C8.42969 26.6504 8.51367 26.8125 8.64062 26.9375C8.76562 27.0645 8.92578 27.1523 9.09961 27.1875C9.27539 27.2227 9.45703 27.2051 9.62109 27.1367C9.78711 27.0684 9.92773 26.9531 10.0273 26.8047C10.127 26.6582 10.1797 26.4824 10.1797 26.3047C10.1797 26.0586 10.2773 25.8223 10.4512 25.6484C10.625 25.4746 10.8613 25.377 11.1074 25.377C11.3535 25.377 11.5898 25.4746 11.7637 25.6484C11.9375 25.8223 12.0352 26.0586 12.0352 26.3047C12.0352 27.0352 11.7461 27.7344 11.2305 28.25C10.7148 28.7656 10.0156 29.0547 9.28516 29.0547C8.55664 29.0547 7.85742 28.7656 7.3418 28.25C6.82617 27.7344 6.53516 27.0352 6.53516 26.3047L6.53711 26.3066ZM4.67969 5.66016C4.43164 5.66016 4.19336 5.56055 4.01758 5.38477C3.8418 5.20898 3.74219 4.9707 3.74219 4.72266C3.74219 4.47266 3.8418 4.23438 4.01758 4.05859C4.19336 3.88281 4.43164 3.7832 4.67969 3.7832L24.5801 3.7832C24.8281 3.7832 25.0684 3.88281 25.2441 4.05859C25.4199 4.23438 25.5176 4.47266 25.5176 4.72266C25.5176 4.9707 25.4199 5.20898 25.2441 5.38477C25.0684 5.56055 24.8281 5.66016 24.5801 5.66016L4.67969 5.66016Z" fill="#F16D7F" fill-opacity="1.000000" fill-rule="nonzero"/>
</svg>
