<svg width="47.023438" height="34.925781" viewBox="0 0 47.0234 34.9258" fill="none" xmlns="http://www.w3.org/2000/svg" xmlns:xlink="http://www.w3.org/1999/xlink">
	<desc>
			Created with Pixso.
	</desc>
	<defs/>
	<path id="Forma 1" d="M42.375 8.53516C41.1582 8.52344 39.9863 8.99414 39.1152 9.84375C38.2441 10.6934 37.7461 11.8516 37.7285 13.0684C37.7305 13.709 37.873 14.3398 38.1426 14.9219C38.4102 15.502 38.8027 16.0176 39.2891 16.4336L33.4277 18.4883L25.0898 8.80469C25.9844 8.50781 26.7637 7.93555 27.3203 7.17383C27.875 6.41016 28.1797 5.49414 28.1895 4.54883C28.1641 3.33398 27.6641 2.17773 26.7949 1.32617C25.9277 0.476562 24.7598 0 23.5449 0C22.3281 0 21.1621 0.476562 20.293 1.32617C19.4258 2.17773 18.9238 3.33398 18.8984 4.54883C18.9082 5.48438 19.207 6.39258 19.752 7.15234C20.2969 7.91016 21.0625 8.48438 21.9453 8.79102L13.5918 18.4922L7.73438 16.4375C8.2207 16.0215 8.61133 15.5039 8.88086 14.9238C9.14844 14.3438 9.28906 13.7109 9.29297 13.0723C9.31641 12.1953 9.08984 11.3301 8.64258 10.5762C8.19336 9.82227 7.54102 9.20898 6.75977 8.81055C5.97852 8.41211 5.10156 8.24219 4.22852 8.32227C3.35352 8.40039 2.52148 8.72461 1.82422 9.25781C1.12695 9.79102 0.595703 10.5098 0.291016 11.332C-0.015625 12.1543 -0.0820312 13.0469 0.0996094 13.9043C0.279297 14.7637 0.699219 15.5527 1.30859 16.1836C1.91992 16.8125 2.69531 17.2578 3.54688 17.4648L3.54688 29.7559C3.55469 29.8379 3.57227 29.918 3.59766 29.9961C3.56445 30.123 3.54688 30.2539 3.54688 30.3848C3.54688 34.7969 21.4668 34.9258 23.5098 34.9258C25.5527 34.9258 43.4707 34.7969 43.4707 30.3848C43.4707 30.2539 43.4531 30.123 43.4219 29.9961C43.4492 29.918 43.4648 29.8379 43.4707 29.7559L43.4707 17.4648C44.5703 17.2246 45.5391 16.582 46.1914 15.666C46.8418 14.748 47.127 13.6211 46.9902 12.5039C46.8535 11.3867 46.3047 10.3613 45.4512 9.62891C44.5977 8.89453 43.502 8.50586 42.3789 8.53906L42.375 8.53516ZM21.1562 4.55078C21.1445 4.07812 21.2734 3.61133 21.5293 3.21094C21.7832 2.81055 22.1523 2.49609 22.5879 2.30664C23.0215 2.11719 23.5039 2.06055 23.9707 2.14648C24.4375 2.23242 24.8672 2.45508 25.207 2.78516C25.5469 3.11719 25.7793 3.54297 25.877 4.00586C25.9727 4.4707 25.9297 4.95312 25.75 5.39258C25.5723 5.83203 25.2656 6.20898 24.873 6.47266C24.4785 6.73828 24.0156 6.87891 23.541 6.87891C22.916 6.88672 22.3145 6.64453 21.8672 6.20898C21.4199 5.77148 21.1641 5.17578 21.1562 4.55078ZM13.5645 20.8281C13.7832 20.9023 14.0176 20.9121 14.2383 20.8516C14.4609 20.793 14.6602 20.6699 14.8105 20.498L23.5117 10.3984L32.2109 20.498C32.3633 20.6699 32.5625 20.793 32.7832 20.8535C33.0059 20.9121 33.2402 20.9043 33.457 20.8281L41.2148 18.1035L41.2148 28.041C36.3301 25.918 25.1055 25.8398 23.5137 25.8398C21.9238 25.8398 10.6953 25.9199 5.81445 28.041L5.81445 18.1035L13.5645 20.8281ZM23.5078 32.7168C14.8086 32.7168 9.25977 31.7051 6.95117 30.8555C6.59961 30.7363 6.26367 30.5781 5.95117 30.3809C6.67383 29.8594 9.01172 29.1484 12.918 28.6484C19.9531 27.8438 27.0566 27.8438 34.0918 28.6484C37.9922 29.1484 40.3379 29.8594 41.0566 30.3809C40.7461 30.5801 40.4121 30.7383 40.0625 30.8555C37.7598 31.7031 32.2168 32.7168 23.5078 32.7168ZM2.26172 13.0684C2.25 12.5938 2.38086 12.1289 2.63672 11.7285C2.89062 11.3281 3.25977 11.0137 3.69531 10.8242C4.12891 10.6348 4.61133 10.5801 5.07812 10.666C5.54492 10.752 5.97461 10.9746 6.31445 11.3047C6.65234 11.6367 6.88672 12.0625 6.98242 12.5254C7.08008 12.9902 7.03516 13.4727 6.85742 13.9121C6.67773 14.3516 6.37109 14.7285 5.97852 14.9922C5.58594 15.2578 5.12109 15.3984 4.64648 15.3984C4.02148 15.4062 3.41992 15.1641 2.97266 14.7266C2.52539 14.291 2.26953 13.6934 2.26172 13.0684ZM42.375 15.3984C41.916 15.3867 41.4727 15.2422 41.0957 14.9785C40.7207 14.7168 40.4316 14.3496 40.2637 13.9219C40.0957 13.4961 40.0586 13.0293 40.1543 12.582C40.25 12.1348 40.4766 11.7246 40.8047 11.4043C41.1328 11.084 41.5469 10.8672 41.9961 10.7812C42.4473 10.6973 42.9121 10.7461 43.334 10.9238C43.7578 11.1016 44.1172 11.4004 44.3711 11.7812C44.625 12.1621 44.7598 12.6113 44.7598 13.0684C44.752 13.6934 44.4961 14.2891 44.0488 14.7266C43.6016 15.1621 43 15.4043 42.375 15.3984L42.375 15.3984Z" fill="#F16D7F" fill-opacity="1.000000" fill-rule="nonzero"/>
</svg>
